<svg id="_x31__x2C_5" enable-background="new 0 0 36 36" height="512" viewBox="0 0 36 36" width="512" xmlns="http://www.w3.org/2000/svg"><path d="m8.687 4.42c6.915.129 11.732-3.365 15.064-3.302 3.333.062 10.296 2.11 10.009 17.44-.287 15.331-9.744 17.404-13.41 17.336-17.163-.322-23.911-31.703-11.663-31.474z" fill="#efefef"/><g fill="#a4afc1"><path d="m7.522 3.256h1v2h-1z"/><path d="m7.522 9.006h1v2h-1z"/><path d="m10.022 6.506h2v1h-2z"/><path d="m4.022 6.506h2v1h-2z"/></g><circle cx="14" cy="22" fill="#2fdf84" r="4.5"/><path d="m9.51 22.24c.29.17.63.26.99.26 1.1 0 2-.9 2-2 0-.9-.6-1.66-1.42-1.91 0 0-1.435.515-1.57 3.65z" fill="#f3f3f1"/><path d="m11.5 22c0-2.14 1.498-3.924 3.5-4.38-.323-.073-.655-.12-1-.12-2.485 0-4.5 2.015-4.5 4.5s2.015 4.5 4.5 4.5c.345 0 .677-.047 1-.12-2.002-.456-3.5-2.24-3.5-4.38z" fill="#00b871"/><path d="m12.191 19.478c-.253-.415-.636-.743-1.111-.888 0 0-1.435.515-1.57 3.65.29.17.63.26.99.26.37 0 .714-.109 1.012-.286.061-1.337.359-2.194.679-2.736z" fill="#d5dbe1"/><path d="m14 27c-2.757 0-5-2.243-5-5s2.243-5 5-5 5 2.243 5 5-2.243 5-5 5zm0-8.5c-1.93 0-3.5 1.57-3.5 3.5s1.57 3.5 3.5 3.5 3.5-1.57 3.5-3.5-1.57-3.5-3.5-3.5z"/><path d="m14.087 30c-4.459 0-8.087-3.628-8.087-8.087 0-2.16.842-4.191 2.369-5.718.019-.019.039-.037.059-.053l10.453-10.453 1.061 1.061-10.509 10.508c-.018.018-.036.035-.056.051-1.211 1.237-1.877 2.87-1.877 4.604 0 3.632 2.955 6.587 6.587 6.587 1.731 0 3.361-.664 4.6-1.871.017-.021.035-.042.055-.062l10.508-10.508 1.061 1.061-10.448 10.446c-.018.022-.037.044-.058.065-1.528 1.528-3.558 2.369-5.718 2.369z"/><path d="m15.275 11.75h6.45v1.5h-6.45z" transform="matrix(.707 -.707 .707 .707 -3.42 16.743)"/><path d="m20.689 17.75h3.621v1.5h-3.621z" transform="matrix(.707 -.707 .707 .707 -6.491 21.328)"/><path d="m24.275 12.75h6.45v1.5h-6.45z" transform="matrix(.707 -.707 .707 .707 -1.491 23.4)"/><path d="m24.275 7.75h6.45v1.5h-6.45z" transform="matrix(.707 -.707 .707 .707 2.044 21.935)"/><path d="m21.689 6.75h3.621v1.5h-3.621z" transform="matrix(.707 -.707 .707 .707 1.58 18.814)"/><path d="m19.482 13.25h5.035v1.5h-5.035z" transform="matrix(.707 -.707 .707 .707 -3.456 19.657)"/><path d="m10.25 23c-.23 0-.45-.027-.672-.083-.402-.101-.646-.508-.546-.91.101-.401.513-.644.909-.545.766.186 1.559-.416 1.559-1.212 0-.406-.19-.773-.522-1.008-.339-.239-.419-.707-.18-1.045s.708-.419 1.045-.179c.724.512 1.157 1.346 1.157 2.232 0 1.516-1.233 2.75-2.75 2.75z"/><path d="m13.132 26.457c-.088-.29-.132-.612-.132-.957 0-1.523.908-2.883 2.313-3.463l.572 1.387c-.841.347-1.385 1.162-1.385 2.076 0 .198.022.375.067.524z"/></svg>