<svg id="_x31__x2C_5" enable-background="new 0 0 36 36" height="512" viewBox="0 0 36 36" width="512" xmlns="http://www.w3.org/2000/svg"><path d="m27.727 4.672c-6.917 0-11.667-3.583-15-3.583s-10.333 1.917-10.333 17.25 9.417 17.583 13.083 17.583c17.167 0 24.5-31.25 12.25-31.25z" fill="#efefef"/><g fill="#a4afc1"><path d="m3.278 8.112h2v1h-2z" transform="matrix(.707 -.707 .707 .707 -4.837 5.547)"/><path d="m7.344 4.046h2v1h-2z" transform="matrix(.707 -.707 .707 .707 -.771 7.231)"/><path d="m3.601 3.546h1v2h-1z" transform="matrix(.707 -.707 .707 .707 -2.013 4.231)"/></g><circle cx="18" cy="18" fill="#f3f3f1" r="7.5"/><path d="m11.077 21.208h.012c.392-.069.738-.254 1.015-.519.335-.346.554-.808.554-1.327.012-.473.173-.9.45-1.246.288-.346.681-.6 1.142-.692 1.177-.254 2.019-1.292 2.019-2.492v-.692c0-1.096-.519-2.123-1.373-2.769 0-.001-5.79 2.693-3.819 9.737z" fill="#2fdf84"/><path d="m25.582 19.047-1.389-.637c-.183-.077-.372-.11-.554-.09-.344.039-.648.237-.807.559-.321.624-1.048.935-1.722.75l-.37-.1c-.314-.084-.644-.112-.966-.076-.677.077-1.302.419-1.731.958-.914 1.159-.813 2.824.24 3.858l1.078 1.064s5.076-.539 6.221-6.286z" fill="#2fdf84"/><path d="m24.57 15.212-2.222.267c-.096.011-.182.021-.278.021-.759 0-1.464-.395-1.859-1.058-1.421-1.944-.278-3.942-.278-3.942s3.568.906 4.637 4.712z" fill="#2fdf84"/><path d="m12.5 18c0-3.802 2.832-6.936 6.5-7.426-.328-.044-.66-.074-1-.074-4.142 0-7.5 3.358-7.5 7.5s3.358 7.5 7.5 7.5c.34 0 .672-.03 1-.074-3.668-.49-6.5-3.624-6.5-7.426z" fill="#d5dbe1"/><path d="m15.644 12.287c-.209-.306-.449-.591-.747-.817 0 0-5.79 2.694-3.819 9.738h.012c.392-.069.738-.254 1.015-.519.335-.346.554-.808.554-1.327.002-.095.036-.179.051-.271-.269-3.58 1.601-5.743 2.934-6.804z" fill="#00b871"/><path d="m18.001 26c-4.004 0-7.424-2.973-7.954-6.914-.055-.411.232-.788.643-.843.413-.061.788.232.843.643.431 3.201 3.211 5.614 6.468 5.614 2.088 0 3.994-.954 5.229-2.617.248-.333.718-.4 1.049-.155.333.247.402.717.155 1.049-1.521 2.049-3.866 3.223-6.433 3.223z"/><path d="m25.725 20.338-1.468-.307.154-.734c.086-.412.13-.849.13-1.296 0-3.584-2.934-6.5-6.539-6.5-2.931 0-5.519 1.96-6.293 4.767l-.2.723-1.446-.399.199-.723c.953-3.456 4.135-5.869 7.739-5.869 4.433 0 8.039 3.589 8.039 8 0 .551-.055 1.09-.162 1.604z"/><path d="m14.349 17.809-.817-1.258c.254-.165.531-.278.822-.336.671-.145 1.147-.736 1.147-1.435v-.59c0-.823-.451-1.587-1.178-1.996l.735-1.308c1.198.675 1.942 1.94 1.942 3.304v.59c0 1.412-.963 2.606-2.342 2.903-.115.024-.215.065-.309.126z"/><path d="m22.07 16c-.986 0-1.877-.507-2.384-1.356-.695-1.154-.875-2.554-.495-3.837.118-.397.536-.623.933-.506.397.118.624.535.506.933-.261.881-.136 1.843.343 2.64.264.442.761.671 1.257.613l2.289-.281c.408-.044.785.242.836.653.05.411-.242.785-.653.836l-2.28.28c-.134.015-.237.025-.352.025z"/><path d="m23.011 20.243-.701-1.326c.055-.029.11-.082.15-.144.467-.727 1.476-1 2.299-.536l.786.469-.77 1.288-.77-.46c-.104-.058-.23-.031-.285.052-.181.281-.426.507-.709.657z"/><path d="m19.84 25.76c-.219 0-.437-.096-.584-.28l-1.49-1.85c-.52-.641-.792-1.46-.766-2.304.013-.415.341-.75.773-.726.414.013.739.359.726.773-.015.484.139.951.433 1.313l1.491 1.852c.26.322.209.794-.114 1.054-.137.114-.304.168-.469.168z"/><path d="m24.676 22.993c-2.303 0-5.082-.401-7.768-1.073-5.243-1.312-9.5-3.467-10.591-5.365-.387-.672-.349-1.224-.249-1.569.519-1.813 3.605-2.069 6.093-1.967.414.018.735.367.718.781-.018.414-.36.739-.781.718-3.122-.128-4.472.472-4.589.883-.037.126.052.309.108.406.749 1.302 4.306 3.319 9.655 4.657 6.801 1.701 10.978.981 11.217.136.101-.343-.639-1.491-3.555-2.888-.374-.179-.531-.627-.352-1s.627-.532 1-.352c2.285 1.095 4.895 2.792 4.348 4.656-.392 1.394-2.477 1.977-5.254 1.977z"/></svg>