<svg id="_x31__x2C_5" enable-background="new 0 0 36 36" height="512" viewBox="0 0 36 36" width="512" xmlns="http://www.w3.org/2000/svg"><path d="m8.114 5.564c-1.805 6.677-6.504 10.327-7.374 13.545s-.847 10.475 13.955 14.477 19.432-4.501 20.388-8.041c4.481-16.572-23.772-31.807-26.969-19.981z" fill="#efefef"/><path d="m31 6.425c-.827 0-1.5-.673-1.5-1.5s.673-1.5 1.5-1.5 1.5.673 1.5 1.5-.673 1.5-1.5 1.5zm0-2c-.276 0-.5.224-.5.5s.224.5.5.5.5-.224.5-.5-.224-.5-.5-.5z" fill="#a4afc1"/><path d="m18.25 20.25h-.25c-.69 0-1.25-.56-1.25-1.25v-2c0-.69.56-1.25 1.25-1.25h.25c.69 0 1.25.56 1.25 1.25v2c0 .69-.56 1.25-1.25 1.25z" fill="#f3f3f1"/><path d="m21.25 20.25h-.5c-.69 0-1.25-.56-1.25-1.25v-2c0-.69.56-1.25 1.25-1.25h.5c.69 0 1.25.56 1.25 1.25v2c0 .69-.56 1.25-1.25 1.25z" fill="#f3f3f1"/><path d="m24 20.25h-.25c-.69 0-1.25-.56-1.25-1.25v-2c0-.69.56-1.25 1.25-1.25h.25c.69 0 1.25.56 1.25 1.25v2c0 .69-.56 1.25-1.25 1.25z" fill="#f3f3f1"/><path d="m12 20.25c-.69 0-1.25-.56-1.25-1.25v-2c0-.69.56-1.25 1.25-1.25.69 0 1.25.56 1.25 1.25v2c0 .69-.56 1.25-1.25 1.25z" fill="#2fdf84"/><g fill="#f3f3f1"><path d="m13 12.25c-.69 0-1.25-.56-1.25-1.25v-2c0-.69.56-1.25 1.25-1.25.69 0 1.25.56 1.25 1.25v2c0 .69-.56 1.25-1.25 1.25z"/><path d="m20.25 12.25h-.25c-.69 0-1.25-.56-1.25-1.25v-2c0-.69.56-1.25 1.25-1.25h.25c.69 0 1.25.56 1.25 1.25v2c0 .69-.56 1.25-1.25 1.25z"/><path d="m23 12.25h-.25c-.69 0-1.25-.56-1.25-1.25v-2c0-.69.56-1.25 1.25-1.25h.25c.69 0 1.25.56 1.25 1.25v2c0 .69-.56 1.25-1.25 1.25z"/><path d="m18 28.25c-.69 0-1.25-.56-1.25-1.25v-2c0-.69.56-1.25 1.25-1.25.69 0 1.25.56 1.25 1.25v2c0 .69-.56 1.25-1.25 1.25z"/><path d="m24 28.25c-.69 0-1.25-.56-1.25-1.25v-2c0-.69.56-1.25 1.25-1.25.69 0 1.25.56 1.25 1.25v2c0 .69-.56 1.25-1.25 1.25z"/><path d="m10 28.25c-.69 0-1.25-.56-1.25-1.25v-2c0-.69.56-1.25 1.25-1.25.69 0 1.25.56 1.25 1.25v2c0 .69-.56 1.25-1.25 1.25z"/></g><path d="m18.25 21h-.25c-1.103 0-2-.897-2-2v-2c0-1.103.897-2 2-2h.25c1.103 0 2 .897 2 2v2c0 1.103-.897 2-2 2zm-.25-4.5c-.276 0-.5.224-.5.5v2c0 .276.224.5.5.5h.25c.276 0 .5-.224.5-.5v-2c0-.276-.224-.5-.5-.5z"/><path d="m21.25 21h-.5c-1.103 0-2-.897-2-2v-2c0-1.103.897-2 2-2h.5c1.103 0 2 .897 2 2v2c0 1.103-.897 2-2 2zm-.5-4.5c-.276 0-.5.224-.5.5v2c0 .276.224.5.5.5h.5c.276 0 .5-.224.5-.5v-2c0-.276-.224-.5-.5-.5z"/><path d="m24 21h-.25c-1.103 0-2-.897-2-2v-2c0-1.103.897-2 2-2h.25c1.103 0 2 .897 2 2v2c0 1.103-.897 2-2 2zm-.25-4.5c-.276 0-.5.224-.5.5v2c0 .276.224.5.5.5h.25c.276 0 .5-.224.5-.5v-2c0-.276-.224-.5-.5-.5z"/><path d="m12 21c-1.103 0-2-.897-2-2v-2c0-1.103.897-2 2-2s2 .897 2 2v2c0 1.103-.897 2-2 2zm0-4.5c-.276 0-.5.224-.5.5v2c0 .276.224.5.5.5s.5-.224.5-.5v-2c0-.276-.224-.5-.5-.5z"/><path d="m13 13c-1.103 0-2-.897-2-2v-2c0-1.103.897-2 2-2s2 .897 2 2v2c0 1.103-.897 2-2 2zm0-4.5c-.276 0-.5.224-.5.5v2c0 .276.224.5.5.5s.5-.224.5-.5v-2c0-.276-.224-.5-.5-.5z"/><path d="m20.25 13h-.25c-1.103 0-2-.897-2-2v-2c0-1.103.897-2 2-2h.25c1.103 0 2 .897 2 2v2c0 1.103-.897 2-2 2zm-.25-4.5c-.276 0-.5.224-.5.5v2c0 .276.224.5.5.5h.25c.276 0 .5-.224.5-.5v-2c0-.276-.224-.5-.5-.5z"/><path d="m23 13h-.25c-1.103 0-2-.897-2-2v-2c0-1.103.897-2 2-2h.25c1.103 0 2 .897 2 2v2c0 1.103-.897 2-2 2zm-.25-4.5c-.276 0-.5.224-.5.5v2c0 .276.224.5.5.5h.25c.276 0 .5-.224.5-.5v-2c0-.276-.224-.5-.5-.5z"/><path d="m6 17.25h5.5v1.5h-5.5z"/><path d="m12.5 17.25h5v1.5h-5z"/><path d="m24.5 17.25h5.5v1.5h-5.5z"/><path d="m18 29c-1.103 0-2-.897-2-2v-2c0-1.103.897-2 2-2s2 .897 2 2v2c0 1.103-.897 2-2 2zm0-4.5c-.276 0-.5.224-.5.5v2c0 .276.224.5.5.5s.5-.224.5-.5v-2c0-.276-.224-.5-.5-.5z"/><path d="m24 29c-1.103 0-2-.897-2-2v-2c0-1.103.897-2 2-2s2 .897 2 2v2c0 1.103-.897 2-2 2zm0-4.5c-.276 0-.5.224-.5.5v2c0 .276.224.5.5.5s.5-.224.5-.5v-2c0-.276-.224-.5-.5-.5z"/><path d="m10 29c-1.103 0-2-.897-2-2v-2c0-1.103.897-2 2-2s2 .897 2 2v2c0 1.103-.897 2-2 2zm0-4.5c-.276 0-.5.224-.5.5v2c0 .276.224.5.5.5s.5-.224.5-.5v-2c0-.276-.224-.5-.5-.5z"/><path d="m6 25.25h3.5v1.5h-3.5z"/><path d="m10.5 25.25h7v1.5h-7z"/><path d="m24.5 25.25h5.5v1.5h-5.5z"/><path d="m18.5 25.25h5v1.5h-5z"/><path d="m23.75 9.25h6.25v1.5h-6.25z"/><path d="m13.75 9.25h5.5v1.5h-5.5z"/><path d="m6 9.25h6.25v1.5h-6.25z"/></svg>